<?xml version="1.0" standalone="no"?>
<!DOCTYPE svg PUBLIC "-//W3C//DTD SVG 20010904//EN"
 "http://www.w3.org/TR/2001/REC-SVG-20010904/DTD/svg10.dtd">
<svg version="1.0" xmlns="http://www.w3.org/2000/svg"
 width="85.000000pt" height="85.000000pt" viewBox="0 0 85.000000 85.000000"
 preserveAspectRatio="xMidYMid meet">
<metadata>
Created by potrace 1.14, written by Peter Selinger 2001-2017
</metadata>
<g transform="translate(0.000000,85.000000) scale(0.100000,-0.100000)"
fill="#000000" stroke="none">
<path d="M357 836 c-92 -28 -146 -104 -150 -214 -2 -60 -6 -73 -35 -108 -129
-156 -73 -393 115 -485 39 -19 64 -24 133 -23 72 0 92 4 135 26 62 33 94 61
129 114 73 112 65 265 -20 371 -30 37 -34 48 -34 101 0 152 -135 260 -273 218z
m131 -126 c28 -28 47 -76 33 -85 -4 -2 -23 0 -42 4 -38 9 -88 7 -139 -4 -33
-7 -33 -7 -26 26 17 85 115 119 174 59z m-34 -356 c24 -24 20 -61 -9 -80 -23
-15 -27 -15 -49 -1 -30 20 -38 50 -19 76 17 25 55 27 77 5z"/>
</g>
</svg>
